<svg width="64" height="64" xmlns="http://www.w3.org/2000/svg">

 <g>
  <title>background</title>
  <rect fill="none" id="canvas_background" height="402" width="582" y="-1" x="-1"/>
 </g>
 <g>
  <title>Layer 1</title>
  <path stroke="null" id="svg_1" d="m4.499445,24.173676l16.310699,13.388798l0,-13.388798l-6.955522,-18.268271c-0.35647,-0.940191 -2.044923,-0.940191 -2.399655,0l-6.955522,18.268271z" fill="#e24329"/>
  <path stroke="null" id="svg_2" d="m57.979719,25.45093l-17.017911,15.261351l0,-15.261351l7.257105,-20.823265c0.371927,-1.071686 2.133589,-1.071686 2.503701,0l7.257105,20.823265z" fill="#e24329"/>
  <path stroke="null" id="svg_3" d="m31.231869,60.284426l-20.58699,-36.561858l41.173979,0l-20.58699,36.561858z" fill="#e24329"/>
  <path stroke="null" id="svg_4" d="m31.206389,60.036749l-11.021483,-36.191772l-15.616543,0l6.659507,19.534322l19.97852,16.65745z" fill="#fc6d26"/>
  <path stroke="null" id="svg_5" d="m31.358756,60.005148l10.890998,-36.068613l15.431655,0l-6.580663,19.467848l-19.74199,16.600765z" fill="#fc6d26"/>
  <path stroke="null" id="svg_6" d="m4.486124,23.879436l-3.167695,10.945837c-0.300097,1.003961 0,2.132306 0.833604,2.771998l29.042758,22.495827l-26.708667,-36.213661z" fill="#fca326"/>
  <path stroke="null" id="svg_7" d="m57.636439,24.024487l3.120687,10.868567c0.295644,0.996873 0,2.117253 -0.821233,2.752429l-28.578921,22.337022l26.279467,-35.958018z" fill="#fca326"/>
 </g>
</svg>